{"title":"Worst.Cooks.in.America.S08E01.Fear.the.Worst.720p.WEB-DL.AAC2.0.","uid":13163751,"size":1298521222,"categoryP":"video","categoryS":"hd___tv_shows","magnet":"?xt=urn:btih:e6572110e4b96e7aceed236e7c2e048700931abd&amp;dn=Worst.Cooks.in.America.S08E01.Fear.the.Worst.720p.WEB-DL.AAC2.0.&amp;tr=udp%3A%2F%2Ftracker.leechers-paradise.org%3A6969&amp;tr=udp%3A%2F%2Fzer0day.ch%3A1337&amp;tr=udp%3A%2F%2Fopen.demonii.com%3A1337&amp;tr=udp%3A%2F%2Ftracker.coppersurfer.tk%3A6969&amp;tr=udp%3A%2F%2Fexodus.desync.com%3A6969","seeders":2,"leechers":0,"uploader":null,"files":3,"time":1452184240,"description":"Video\r\nID                                       : 2\r\nFormat                                   : AVC\r\nFormat/Info                              : Advanced Video Codec\r\nFormat profile                           :   \r\nFormat settings, CABAC                   : No\r\nFormat settings, ReFrames                : 2 frames\r\nCodec ID                                 : V_MPEG4/ISO/AVC\r\nDuration                                 : 42mn 14s\r\nBit rate                                 : 3 940 Kbps\r\nWidth                                    : 954 pixels\r\nHeight                                   : 720 pixels\r\nDisplay aspect ratio                     : 16:9\r\nFrame rate mode                          : Constant\r\nFrame rate                               : 29.970 (29970/1000) fps\r\nColor space                              : YUV\r\nChroma subsampling                       : 4:2:0\r\nBit depth                                : 8 bits\r\nScan type                                : Progressive\r\nBits/(Pixel*Frame)                       : 0.191\r\nStream size                              : 1.16 GiB (96%)\r\nLanguage                                 : English\r\nDefault                                  : Yes\r\nForced                                   : No\r\nColor range                              : Limited\r\nColor primaries                          : BT.709\r\nTransfer characteristics                 : BT.709\r\nMatrix coefficients                      : BT.709\r\n\r\nAudio\r\nID                                       : 1\r\nFormat                                   : AAC\r\nFormat/Info                              : Advanced Audio Codec\r\nFormat profile                           : LC\r\nCodec ID                                 : A_AAC\r\nDuration                                 : 42mn 14s\r\nBit rate                                 : 156 Kbps\r\nChannel(s)                               : 2 channels\r\nChannel positions                        : Front: L R\r\nSampling rate                            : 48.0 KHz\r\nFrame rate                               : 46.875 fps (1024 spf)\r\nCompression mode                         : Lossy\r\nStream size                              : 47.1 MiB (4%)\r\nLanguage                                 : English\r\nDefault                                  : Yes\r\nForced                                   : No\r\n\r\nText\r\nID                                       : 3\r\nFormat                                   : UTF-8\r\nCodec ID                                 : S_TEXT/UTF8\r\nCodec ID/Info                            : UTF-8 Plain Text\r\nDuration                                 : 42mn 0s\r\nBit rate                                 : 123 bps\r\nCount of elements                        : 1186\r\nStream size                              : 37.9 KiB (0%)\r\nLanguage                                 : English\r\nDefault                                  : No\r\nForced                                   : No","torrent":{"xt":"urn:btih:e6572110e4b96e7aceed236e7c2e048700931abd","amp;dn":"Worst.Cooks.in.America.S08E01.Fear.the.Worst.720p.WEB-DL.AAC2.0.","amp;tr":["udp%3A%2F%2Ftracker.leechers-paradise.org%3A6969","udp%3A%2F%2Fzer0day.ch%3A1337","udp%3A%2F%2Fopen.demonii.com%3A1337","udp%3A%2F%2Ftracker.coppersurfer.tk%3A6969","udp%3A%2F%2Fexodus.desync.com%3A6969"],"infoHash":"e6572110e4b96e7aceed236e7c2e048700931abd","infoHashBuffer":{"type":"Buffer","data":[230,87,33,16,228,185,110,122,206,237,35,110,124,46,4,135,0,147,26,189]},"announce":[],"urlList":[]}}